<?xml version="1.0" encoding="UTF-8" standalone="no"?>
<!DOCTYPE svg PUBLIC "-//W3C//DTD SVG 1.1//EN"
 "http://www.w3.org/Graphics/SVG/1.1/DTD/svg11.dtd">
<!-- Generated by graphviz version 2.40.1 (20161225.0304)
 -->
<!-- Title: dependencies Pages: 1 -->
<svg width="2037pt" height="284pt"
 viewBox="0.00 0.00 2037.00 284.00" xmlns="http://www.w3.org/2000/svg" xmlns:xlink="http://www.w3.org/1999/xlink">
<g id="graph0" class="graph" transform="scale(1 1) rotate(0) translate(4 280)">
<title>dependencies</title>
<polygon fill="#ffffff" stroke="transparent" points="-4,4 -4,-280 2033,-280 2033,4 -4,4"/>
<text text-anchor="start" x="993.5091" y="-42.4" font-family="sans-serif" font-weight="bold" font-size="14.00" fill="#000000">Legend</text>
<polygon fill="#ffffb3" stroke="transparent" points="780.5,-10 780.5,-30 800.5,-30 800.5,-10 780.5,-10"/>
<text text-anchor="start" x="804.129" y="-15.4" font-family="sans-serif" font-size="14.00" fill="#000000"> &#160;Declarations</text>
<polygon fill="#8dd3c7" stroke="transparent" points="893.5,-10 893.5,-30 913.5,-30 913.5,-10 893.5,-10"/>
<text text-anchor="start" x="917.2251" y="-15.4" font-family="sans-serif" font-size="14.00" fill="#000000"> &#160;Module</text>
<polygon fill="#80b1d3" stroke="transparent" points="979.5,-10 979.5,-30 999.5,-30 999.5,-10 979.5,-10"/>
<text text-anchor="start" x="1003.2812" y="-15.4" font-family="sans-serif" font-size="14.00" fill="#000000"> &#160;Bootstrap</text>
<polygon fill="#fdb462" stroke="transparent" points="1076.5,-10 1076.5,-30 1096.5,-30 1096.5,-10 1076.5,-10"/>
<text text-anchor="start" x="1100.1732" y="-15.4" font-family="sans-serif" font-size="14.00" fill="#000000"> &#160;Providers</text>
<polygon fill="#fb8072" stroke="transparent" points="1172.5,-10 1172.5,-30 1192.5,-30 1192.5,-10 1172.5,-10"/>
<text text-anchor="start" x="1196.2258" y="-15.4" font-family="sans-serif" font-size="14.00" fill="#000000"> &#160;Exports</text>
<g id="clust1" class="cluster">
<title>cluster_AppModule</title>
<polygon fill="none" stroke="#000000" stroke-dasharray="1,5" points="8,-70 8,-268 2021,-268 2021,-70 8,-70"/>
</g>
<g id="clust2" class="cluster">
<title>cluster_AppModule_declarations</title>
<polygon fill="none" stroke="#000000" points="362,-78 362,-130 2013,-130 2013,-78 362,-78"/>
</g>
<g id="clust15" class="cluster">
<title>cluster_AppModule_imports</title>
<polygon fill="none" stroke="#000000" points="186,-78 186,-130 354,-130 354,-78 186,-78"/>
</g>
<g id="clust17" class="cluster">
<title>cluster_AppModule_bootstrap</title>
<polygon fill="none" stroke="#000000" points="981,-208 981,-260 1105,-260 1105,-208 981,-208"/>
</g>
<g id="clust18" class="cluster">
<title>cluster_AppModule_providers</title>
<polygon fill="none" stroke="#000000" points="16,-78 16,-130 178,-130 178,-78 16,-78"/>
</g>
<!-- AdminComponent -->
<g id="node1" class="node">
<title>AdminComponent</title>
<polygon fill="#ffffb3" stroke="#000000" points="2005.2204,-122 1884.7796,-122 1884.7796,-86 2005.2204,-86 2005.2204,-122"/>
<text text-anchor="middle" x="1945" y="-99.8" font-family="Times,serif" font-size="14.00" fill="#000000">AdminComponent</text>
</g>
<!-- AppModule -->
<g id="node13" class="node">
<title>AppModule</title>
<polygon fill="#8dd3c7" stroke="#000000" points="1084.6571,-187 1081.6571,-191 1060.6571,-191 1057.6571,-187 1001.3429,-187 1001.3429,-151 1084.6571,-151 1084.6571,-187"/>
<text text-anchor="middle" x="1043" y="-164.8" font-family="Times,serif" font-size="14.00" fill="#000000">AppModule</text>
</g>
<!-- AdminComponent&#45;&gt;AppModule -->
<g id="edge1" class="edge">
<title>AdminComponent&#45;&gt;AppModule</title>
<path fill="none" stroke="#000000" d="M1945,-122.0908C1945,-145.1328 1945,-182 1945,-182 1945,-182 1094.6963,-182 1094.6963,-182"/>
<polygon fill="#000000" stroke="#000000" points="1094.6963,-178.5001 1084.6963,-182 1094.6963,-185.5001 1094.6963,-178.5001"/>
</g>
<!-- AppComponent -->
<g id="node2" class="node">
<title>AppComponent</title>
<polygon fill="#ffffb3" stroke="#000000" points="1866.9399,-122 1761.0601,-122 1761.0601,-86 1866.9399,-86 1866.9399,-122"/>
<text text-anchor="middle" x="1814" y="-99.8" font-family="Times,serif" font-size="14.00" fill="#000000">AppComponent</text>
</g>
<!-- AppComponent&#45;&gt;AppModule -->
<g id="edge2" class="edge">
<title>AppComponent&#45;&gt;AppModule</title>
<path fill="none" stroke="#000000" d="M1814,-122.0449C1814,-143.6623 1814,-177 1814,-177 1814,-177 1094.7257,-177 1094.7257,-177"/>
<polygon fill="#000000" stroke="#000000" points="1094.7257,-173.5001 1084.7257,-177 1094.7256,-180.5001 1094.7257,-173.5001"/>
</g>
<!-- DashboardComponent -->
<g id="node3" class="node">
<title>DashboardComponent</title>
<polygon fill="#ffffb3" stroke="#000000" points="1742.9734,-122 1601.0266,-122 1601.0266,-86 1742.9734,-86 1742.9734,-122"/>
<text text-anchor="middle" x="1672" y="-99.8" font-family="Times,serif" font-size="14.00" fill="#000000">DashboardComponent</text>
</g>
<!-- DashboardComponent&#45;&gt;AppModule -->
<g id="edge3" class="edge">
<title>DashboardComponent&#45;&gt;AppModule</title>
<path fill="none" stroke="#000000" d="M1672,-122.2228C1672,-142.3652 1672,-172 1672,-172 1672,-172 1094.7576,-172 1094.7576,-172"/>
<polygon fill="#000000" stroke="#000000" points="1094.7576,-168.5001 1084.7576,-172 1094.7575,-175.5001 1094.7576,-168.5001"/>
</g>
<!-- ErrorComponent -->
<g id="node4" class="node">
<title>ErrorComponent</title>
<polygon fill="#ffffb3" stroke="#000000" points="1583.3669,-122 1472.6331,-122 1472.6331,-86 1583.3669,-86 1583.3669,-122"/>
<text text-anchor="middle" x="1528" y="-99.8" font-family="Times,serif" font-size="14.00" fill="#000000">ErrorComponent</text>
</g>
<!-- ErrorComponent&#45;&gt;AppModule -->
<g id="edge4" class="edge">
<title>ErrorComponent&#45;&gt;AppModule</title>
<path fill="none" stroke="#000000" d="M1528,-122.2222C1528,-140.8285 1528,-167 1528,-167 1528,-167 1094.7706,-167 1094.7706,-167"/>
<polygon fill="#000000" stroke="#000000" points="1094.7706,-163.5001 1084.7706,-167 1094.7706,-170.5001 1094.7706,-163.5001"/>
</g>
<!-- FooterComponent -->
<g id="node5" class="node">
<title>FooterComponent</title>
<polygon fill="#ffffb3" stroke="#000000" points="1454.8809,-122 1337.1191,-122 1337.1191,-86 1454.8809,-86 1454.8809,-122"/>
<text text-anchor="middle" x="1396" y="-99.8" font-family="Times,serif" font-size="14.00" fill="#000000">FooterComponent</text>
</g>
<!-- FooterComponent&#45;&gt;AppModule -->
<g id="edge5" class="edge">
<title>FooterComponent&#45;&gt;AppModule</title>
<path fill="none" stroke="#000000" d="M1396,-122.0336C1396,-139.0597 1396,-162 1396,-162 1396,-162 1094.8799,-162 1094.8799,-162"/>
<polygon fill="#000000" stroke="#000000" points="1094.88,-158.5001 1084.8799,-162 1094.8799,-165.5001 1094.88,-158.5001"/>
</g>
<!-- ForecastComponent -->
<g id="node6" class="node">
<title>ForecastComponent</title>
<polygon fill="#ffffb3" stroke="#000000" points="1319.2548,-122 1190.7452,-122 1190.7452,-86 1319.2548,-86 1319.2548,-122"/>
<text text-anchor="middle" x="1255" y="-99.8" font-family="Times,serif" font-size="14.00" fill="#000000">ForecastComponent</text>
</g>
<!-- ForecastComponent&#45;&gt;AppModule -->
<g id="edge6" class="edge">
<title>ForecastComponent&#45;&gt;AppModule</title>
<path fill="none" stroke="#000000" d="M1255,-122.2396C1255,-137.5706 1255,-157 1255,-157 1255,-157 1094.8844,-157 1094.8844,-157"/>
<polygon fill="#000000" stroke="#000000" points="1094.8844,-153.5001 1084.8844,-157 1094.8843,-160.5001 1094.8844,-153.5001"/>
</g>
<!-- HeaderComponent -->
<g id="node7" class="node">
<title>HeaderComponent</title>
<polygon fill="#ffffb3" stroke="#000000" points="1172.7437,-122 1051.2563,-122 1051.2563,-86 1172.7437,-86 1172.7437,-122"/>
<text text-anchor="middle" x="1112" y="-99.8" font-family="Times,serif" font-size="14.00" fill="#000000">HeaderComponent</text>
</g>
<!-- HeaderComponent&#45;&gt;AppModule -->
<g id="edge7" class="edge">
<title>HeaderComponent&#45;&gt;AppModule</title>
<path fill="none" stroke="#000000" d="M1067.9782,-122.1061C1067.9782,-122.1061 1067.9782,-140.991 1067.9782,-140.991"/>
<polygon fill="#000000" stroke="#000000" points="1064.4783,-140.9909 1067.9782,-150.991 1071.4783,-140.991 1064.4783,-140.9909"/>
</g>
<!-- HomeComponent -->
<g id="node8" class="node">
<title>HomeComponent</title>
<polygon fill="#ffffb3" stroke="#000000" points="1032.5451,-122 917.4549,-122 917.4549,-86 1032.5451,-86 1032.5451,-122"/>
<text text-anchor="middle" x="975" y="-99.8" font-family="Times,serif" font-size="14.00" fill="#000000">HomeComponent</text>
</g>
<!-- HomeComponent&#45;&gt;AppModule -->
<g id="edge8" class="edge">
<title>HomeComponent&#45;&gt;AppModule</title>
<path fill="none" stroke="#000000" d="M1016.972,-122.1061C1016.972,-122.1061 1016.972,-140.991 1016.972,-140.991"/>
<polygon fill="#000000" stroke="#000000" points="1013.472,-140.9909 1016.972,-150.991 1020.472,-140.991 1013.472,-140.9909"/>
</g>
<!-- ResultComponent -->
<g id="node9" class="node">
<title>ResultComponent</title>
<polygon fill="#ffffb3" stroke="#000000" points="899.6095,-122 782.3905,-122 782.3905,-86 899.6095,-86 899.6095,-122"/>
<text text-anchor="middle" x="841" y="-99.8" font-family="Times,serif" font-size="14.00" fill="#000000">ResultComponent</text>
</g>
<!-- ResultComponent&#45;&gt;AppModule -->
<g id="edge9" class="edge">
<title>ResultComponent&#45;&gt;AppModule</title>
<path fill="none" stroke="#000000" d="M841,-122.2396C841,-137.5706 841,-157 841,-157 841,-157 991.1455,-157 991.1455,-157"/>
<polygon fill="#000000" stroke="#000000" points="991.1455,-160.5001 1001.1455,-157 991.1454,-153.5001 991.1455,-160.5001"/>
</g>
<!-- SearchComponent -->
<g id="node10" class="node">
<title>SearchComponent</title>
<polygon fill="#ffffb3" stroke="#000000" points="764.9201,-122 645.0799,-122 645.0799,-86 764.9201,-86 764.9201,-122"/>
<text text-anchor="middle" x="705" y="-99.8" font-family="Times,serif" font-size="14.00" fill="#000000">SearchComponent</text>
</g>
<!-- SearchComponent&#45;&gt;AppModule -->
<g id="edge10" class="edge">
<title>SearchComponent&#45;&gt;AppModule</title>
<path fill="none" stroke="#000000" d="M705,-122.0336C705,-139.0597 705,-162 705,-162 705,-162 991.2156,-162 991.2156,-162"/>
<polygon fill="#000000" stroke="#000000" points="991.2156,-165.5001 1001.2156,-162 991.2155,-158.5001 991.2156,-165.5001"/>
</g>
<!-- SigninComponent -->
<g id="node11" class="node">
<title>SigninComponent</title>
<polygon fill="#ffffb3" stroke="#000000" points="626.8962,-122 509.1038,-122 509.1038,-86 626.8962,-86 626.8962,-122"/>
<text text-anchor="middle" x="568" y="-99.8" font-family="Times,serif" font-size="14.00" fill="#000000">SigninComponent</text>
</g>
<!-- SigninComponent&#45;&gt;AppModule -->
<g id="edge11" class="edge">
<title>SigninComponent&#45;&gt;AppModule</title>
<path fill="none" stroke="#000000" d="M568,-122.2222C568,-140.8285 568,-167 568,-167 568,-167 991.2632,-167 991.2632,-167"/>
<polygon fill="#000000" stroke="#000000" points="991.2633,-170.5001 1001.2632,-167 991.2632,-163.5001 991.2633,-170.5001"/>
</g>
<!-- SignupComponent -->
<g id="node12" class="node">
<title>SignupComponent</title>
<polygon fill="#ffffb3" stroke="#000000" points="491.5056,-122 370.4944,-122 370.4944,-86 491.5056,-86 491.5056,-122"/>
<text text-anchor="middle" x="431" y="-99.8" font-family="Times,serif" font-size="14.00" fill="#000000">SignupComponent</text>
</g>
<!-- SignupComponent&#45;&gt;AppModule -->
<g id="edge12" class="edge">
<title>SignupComponent&#45;&gt;AppModule</title>
<path fill="none" stroke="#000000" d="M431,-122.2228C431,-142.3652 431,-172 431,-172 431,-172 990.9348,-172 990.9348,-172"/>
<polygon fill="#000000" stroke="#000000" points="990.9348,-175.5001 1000.9348,-172 990.9347,-168.5001 990.9348,-175.5001"/>
</g>
<!-- AppComponent  -->
<g id="node15" class="node">
<title>AppComponent </title>
<polygon fill="#80b1d3" stroke="#000000" points="1097.439,-252 988.561,-252 988.561,-216 1097.439,-216 1097.439,-252"/>
<text text-anchor="middle" x="1043" y="-229.8" font-family="Times,serif" font-size="14.00" fill="#000000">AppComponent </text>
</g>
<!-- AppModule&#45;&gt;AppComponent  -->
<g id="edge14" class="edge">
<title>AppModule&#45;&gt;AppComponent </title>
<path fill="none" stroke="#000000" stroke-dasharray="1,5" d="M1043,-187.1061C1043,-187.1061 1043,-205.991 1043,-205.991"/>
<polygon fill="#000000" stroke="#000000" points="1039.5001,-205.9909 1043,-215.991 1046.5001,-205.991 1039.5001,-205.9909"/>
</g>
<!-- AngularMaterialModule -->
<g id="node14" class="node">
<title>AngularMaterialModule</title>
<polygon fill="#8dd3c7" stroke="#000000" points="346.3431,-122 343.3431,-126 322.3431,-126 319.3431,-122 193.6569,-122 193.6569,-86 346.3431,-86 346.3431,-122"/>
<text text-anchor="middle" x="270" y="-99.8" font-family="Times,serif" font-size="14.00" fill="#000000">AngularMaterialModule</text>
</g>
<!-- AngularMaterialModule&#45;&gt;AppModule -->
<g id="edge13" class="edge">
<title>AngularMaterialModule&#45;&gt;AppModule</title>
<path fill="none" stroke="#000000" d="M270,-122.0449C270,-143.6623 270,-177 270,-177 270,-177 991.1661,-177 991.1661,-177"/>
<polygon fill="#000000" stroke="#000000" points="991.1661,-180.5001 1001.1661,-177 991.166,-173.5001 991.1661,-180.5001"/>
</g>
<!-- AuthInterceptor -->
<g id="node16" class="node">
<title>AuthInterceptor</title>
<ellipse fill="#fdb462" stroke="#000000" cx="97" cy="-104" rx="72.9121" ry="18"/>
<text text-anchor="middle" x="97" y="-99.8" font-family="Times,serif" font-size="14.00" fill="#000000">AuthInterceptor</text>
</g>
<!-- AuthInterceptor&#45;&gt;AppModule -->
<g id="edge15" class="edge">
<title>AuthInterceptor&#45;&gt;AppModule</title>
<path fill="none" stroke="#000000" d="M97,-122.0908C97,-145.1328 97,-182 97,-182 97,-182 991.1309,-182 991.1309,-182"/>
<polygon fill="#000000" stroke="#000000" points="991.131,-185.5001 1001.1309,-182 991.1309,-178.5001 991.131,-185.5001"/>
</g>
</g>
</svg>
